<svg width="713.76875px" height="121.39999999999999px" xmlns="http://www.w3.org/2000/svg" viewBox="-106.88437499999998 14.300000000000004 713.76875 121.39999999999999" style="background: rgba(0, 0, 0, 0);" preserveAspectRatio="xMidYMid"><defs><filter id="editing-hole" x="-100%" y="-100%" width="300%" height="300%"><feFlood flood-color="#000" result="black"></feFlood><feMorphology operator="dilate" radius="2" in="SourceGraphic" result="erode"></feMorphology><feGaussianBlur in="erode" stdDeviation="4" result="blur"></feGaussianBlur><feOffset in="blur" dx="2" dy="2" result="offset"></feOffset><feComposite operator="atop" in="offset" in2="black" result="merge"></feComposite><feComposite operator="in" in="merge" in2="SourceGraphic" result="inner-shadow"></feComposite></filter></defs><g filter="url(#editing-hole)"><g transform="translate(-4.625013828277588, 99)"><path d="M2.69-39.68L2.69-39.68L2.69-39.68Q3.58-41.47 5.54-42.46L5.54-42.46L5.54-42.46Q7.49-43.46 10.18-43.46L10.18-43.46L10.18-43.46Q14.40-43.46 16.93-40.42L16.93-40.42L16.93-40.42Q19.46-37.38 19.46-30.72L19.46-30.72L19.46-7.87L34.11-42.18L41.66-42.18L43.39-9.79L43.20-7.94L58.43-42.18L67.20-42.18L46.72 0L33.09 0L31.81-19.46L23.36 0L7.94 0L6.02-30.72L6.02-30.72Q5.82-34.18 4.90-36.45L4.90-36.45L4.90-36.45Q3.97-38.72 2.69-39.68ZM79.81-3.52L79.81-3.52L79.81-3.52Q77.82 1.28 71.49 1.28L71.49 1.28L71.49 1.28Q68.22 1.28 66.18-0.96L66.18-0.96L66.18-0.96Q64.45-2.94 64.45-4.93L64.45-4.93L64.45-4.93Q64.45-10.11 66.82-20.22L66.82-20.22L69.18-32.64L82.18-33.92L78.27-13.70L78.27-13.70Q77.18-8.96 77.18-7.30L77.18-7.30L77.18-7.30Q77.18-3.65 79.81-3.52ZM70.34-41.54L70.34-41.54L70.34-41.54Q70.34-44.03 72.42-45.38L72.42-45.38L72.42-45.38Q74.50-46.72 77.50-46.72L77.50-46.72L77.50-46.72Q80.51-46.72 82.34-45.38L82.34-45.38L82.34-45.38Q84.16-44.03 84.16-41.54L84.16-41.54L84.16-41.54Q84.16-39.04 82.14-37.76L82.14-37.76L82.14-37.76Q80.13-36.48 77.12-36.48L77.12-36.48L77.12-36.48Q74.11-36.48 72.22-37.76L72.22-37.76L72.22-37.76Q70.34-39.04 70.34-41.54ZM112.32 1.28L112.32 1.28L112.32 1.28Q104.58 1.28 104.58-4.74L104.58-4.74L104.58-4.74Q104.64-6.40 105.15-9.22L105.15-9.22L106.30-15.10L106.30-15.10Q108.03-23.42 108.03-25.28L108.03-25.28L108.03-25.28Q108.03-28.99 105.86-28.99L105.86-28.99L105.86-28.99Q102.21-28.99 100.29-19.46L100.29-19.46L96.51 0L83.65 1.28L90.30-32.70L100.80-33.92L99.78-27.65L99.78-27.65Q102.78-33.92 112-33.92L112-33.92L112-33.92Q116.48-33.92 118.37-32.03L118.37-32.03L118.37-32.03Q120.26-30.14 120.26-25.92L120.26-25.92L120.26-25.92Q120.26-21.95 118.21-12.67L118.21-12.67L118.21-12.67Q117.25-8.51 117.25-6.94L117.25-6.94L117.25-6.94Q117.25-5.38 118.11-4.48L118.11-4.48L118.11-4.48Q118.98-3.58 120.26-3.46L120.26-3.46L120.26-3.46Q119.62-1.28 117.41 0L117.41 0L117.41 0Q115.20 1.28 112.32 1.28ZM145.54-33.92L145.54-33.92L145.54-33.92Q147.84-33.92 149.63-33.41L149.63-33.41L149.63-33.41Q149.70-33.66 149.82-34.37L149.82-34.37L150.14-36.35L150.14-36.35Q150.40-37.63 150.78-39.74L150.78-39.74L151.81-44.80L164.54-46.08L157.44-8.96L157.44-8.96Q157.38-8.58 157.38-7.94L157.38-7.94L157.38-6.91L157.38-6.91Q157.38-5.50 158.08-4.45L158.08-4.45L158.08-4.45Q158.78-3.39 159.94-3.39L159.94-3.39L159.94-3.39Q158.66-0.38 154.75 0.90L154.75 0.90L154.75 0.90Q153.41 1.28 151.52 1.28L151.52 1.28L151.52 1.28Q149.63 1.28 147.90 0.29L147.90 0.29L147.90 0.29Q146.18-0.70 145.66-2.37L145.66-2.37L145.66-2.37Q144.64-0.70 142.59 0.29L142.59 0.29L142.59 0.29Q140.54 1.28 137.57 1.28L137.57 1.28L137.57 1.28Q134.59 1.28 132.13 0.51L132.13 0.51L132.13 0.51Q129.66-0.26 128.13-1.92L128.13-1.92L128.13-1.92Q125.31-5.18 125.31-12.61L125.31-12.61L125.31-12.61Q125.31-22.21 130.94-28.03L130.94-28.03L130.94-28.03Q136.58-33.92 145.54-33.92ZM145.09-30.08L145.09-30.08L145.09-30.08Q142.72-30.08 141.44-27.52L141.44-27.52L141.44-27.52Q140.16-24.96 138.85-18.62L138.85-18.62L138.85-18.62Q137.54-12.29 137.54-6.59L137.54-6.59L137.54-6.59Q137.54-2.69 139.84-2.69L139.84-2.69L139.84-2.69Q141.89-2.69 143.33-4.74L143.33-4.74L143.33-4.74Q144.77-6.78 145.34-10.18L145.34-10.18L148.80-28.93L148.80-28.93Q147.46-30.08 145.09-30.08ZM179.33 1.28L179.33 1.28L179.33 1.28Q165.25 1.28 165.25-11.97L165.25-11.97L165.25-11.97Q165.25-21.38 170.43-27.46L170.43-27.46L170.43-27.46Q175.94-33.92 185.47-33.92L185.47-33.92L185.47-33.92Q192.38-33.92 195.90-30.72L195.90-30.72L195.90-30.72Q199.42-27.52 199.42-20.80L199.42-20.80L199.42-20.80Q199.42-10.56 193.92-4.61L193.92-4.61L193.92-4.61Q188.54 1.28 179.33 1.28ZM180.99-26.56L180.99-26.56L180.99-26.56Q180.22-24.83 179.62-22.24L179.62-22.24L179.62-22.24Q179.01-19.65 178.24-15.55L178.24-15.55L178.24-15.55Q177.47-11.46 177.47-6.40L177.47-6.40L177.47-6.40Q177.47-4.74 178.02-3.65L178.02-3.65L178.02-3.65Q178.56-2.56 180.03-2.56L180.03-2.56L180.03-2.56Q181.50-2.56 182.43-3.26L182.43-3.26L182.43-3.26Q183.36-3.97 184.06-5.63L184.06-5.63L184.06-5.63Q185.34-8.58 186.37-14.05L186.37-14.05L186.37-14.05Q187.39-19.52 187.49-21.89L187.49-21.89L187.49-21.89Q187.58-24.26 187.58-26.02L187.58-26.02L187.58-26.02Q187.58-27.78 187.07-28.93L187.07-28.93L187.07-28.93Q186.56-30.08 185.12-30.08L185.12-30.08L185.12-30.08Q183.68-30.08 182.72-29.18L182.72-29.18L182.72-29.18Q181.76-28.29 180.99-26.56ZM250.94-10.69L250.94-10.69Q246.72-4.86 242.66-1.79L242.66-1.79L242.66-1.79Q238.59 1.28 234.40 1.28L234.40 1.28L234.40 1.28Q230.21 1.28 228.74 0.45L228.74 0.45L228.74-13.63L228.74-13.63Q225.09-3.90 218.56-0.13L218.56-0.13L218.56-0.13Q216.19 1.28 213.95 1.28L213.95 1.28L213.95 1.28Q209.66 1.28 207.81 0.45L207.81 0.45L207.81 0.45Q207.36-14.21 206.98-18.27L206.98-18.27L206.98-18.27Q206.59-22.34 206.27-24.83L206.27-24.83L206.27-24.83Q205.63-29.82 203.46-31.87L203.46-31.87L203.46-31.87Q206.21-33.92 210.05-33.92L210.05-33.92L210.05-33.92Q217.47-33.92 218.50-24.70L218.50-24.70L218.50-24.70Q218.75-22.53 218.75-20.22L218.75-20.22L218.75-20.22Q218.75-16.77 217.98-4.74L217.98-4.74L217.98-4.74Q219.52-5.44 221.15-7.97L221.15-7.97L221.15-7.97Q222.78-10.50 224.13-13.95L224.13-13.95L224.13-13.95Q227.14-21.95 227.14-28.86L227.14-28.86L227.14-28.86Q227.14-29.95 226.85-31.10L226.85-31.10L226.85-31.10Q226.56-32.26 226.24-32.58L226.24-32.58L226.24-32.58Q228.48-33.92 231.90-33.92L231.90-33.92L231.90-33.92Q235.33-33.92 236.96-31.58L236.96-31.58L236.96-31.58Q238.59-29.25 239.04-24.96L239.04-24.96L239.04-24.96Q239.55-19.52 239.55-16.26L239.55-16.26L239.55-16.26Q239.55-11.71 239.10-4.99L239.10-4.99L239.10-4.99Q242.30-7.30 244.93-14.85L244.93-14.85L244.93-14.85Q247.55-22.40 247.55-27.78L247.55-27.78L247.55-27.78Q247.55-30.14 247.17-31.55L247.17-31.55L247.17-31.55Q249.28-33.92 252.93-33.92L252.93-33.92L252.93-33.92Q255.17-33.92 256.80-32.70L256.80-32.70L256.80-32.70Q258.43-31.49 258.43-29.22L258.43-29.22L258.43-29.22Q258.43-26.94 257.76-24.51L257.76-24.51L257.76-24.51Q257.09-22.08 256-19.58L256-19.58L256-19.58Q253.89-14.59 250.94-10.69L250.94-10.69ZM306.75-13.25L306.75-13.25L306.75-13.25Q308.42-12.03 308.42-9.44L308.42-9.44L308.42-9.44Q308.42-6.85 307.30-5.02L307.30-5.02L307.30-5.02Q306.18-3.20 304-1.79L304-1.79L304-1.79Q299.33 1.22 291.17 1.22L291.17 1.22L291.17 1.22Q283.01 1.22 278.56-3.04L278.56-3.04L278.56-3.04Q274.11-7.30 274.11-14.85L274.11-14.85L274.11-14.85Q274.11-25.54 279.68-33.66L279.68-33.66L279.68-33.66Q283.90-39.68 291.46-42.24L291.46-42.24L291.46-42.24Q295.36-43.52 299.20-43.52L299.20-43.52L299.20-43.52Q303.04-43.52 305.41-43.01L305.41-43.01L305.41-43.01Q307.78-42.50 309.57-41.47L309.57-41.47L309.57-41.47Q313.47-39.23 313.47-35.65L313.47-35.65L313.47-35.65Q313.47-32.38 310.40-29.95L310.40-29.95L310.40-29.95Q307.58-27.78 305.28-27.78L305.28-27.78L305.28-27.78Q302.98-27.78 302.02-28.10L302.02-28.10L302.02-28.10Q302.27-30.40 302.27-31.90L302.27-31.90L302.27-31.90Q302.27-33.41 302.21-34.50L302.21-34.50L302.21-34.50Q302.14-35.58 301.82-36.61L301.82-36.61L301.82-36.61Q301.18-38.98 299.23-38.98L299.23-38.98L299.23-38.98Q297.28-38.98 295.33-37.15L295.33-37.15L295.33-37.15Q293.38-35.33 291.71-32.26L291.71-32.26L291.71-32.26Q287.94-25.28 287.94-17.02L287.94-17.02L287.94-17.02Q287.94-13.06 290.18-10.78L290.18-10.78L290.18-10.78Q292.42-8.51 297.22-8.51L297.22-8.51L297.22-8.51Q300.80-8.51 304.19-10.88L304.19-10.88L304.19-10.88Q305.66-11.90 306.75-13.25ZM334.27-2.69L334.27-2.69L334.27-2.69Q331.20 1.28 323.58 1.28L323.58 1.28L323.58 1.28Q319.62 1.28 316.74-1.12L316.74-1.12L316.74-1.12Q313.86-3.52 313.86-6.98L313.86-6.98L313.86-6.98Q313.86-8.90 314.05-9.86L314.05-9.86L318.34-32.64L331.33-33.92L326.66-9.22L326.66-9.22Q326.40-7.81 326.40-6.98L326.40-6.98L326.40-6.98Q326.40-3.26 328.64-3.26L328.64-3.26L328.64-3.26Q331.14-3.26 332.93-6.66L332.93-6.66L332.93-6.66Q333.50-7.74 333.76-9.15L333.76-9.15L338.30-32.64L350.91-33.92L346.18-8.96L346.18-8.96Q345.98-8 345.98-6.98L345.98-6.98L345.98-6.98Q345.98-5.95 346.56-4.83L346.56-4.83L346.56-4.83Q347.14-3.71 348.99-3.46L348.99-3.46L348.99-3.46Q348.61-1.92 347.26-0.90L347.26-0.90L347.26-0.90Q344.45 1.28 341.41 1.28L341.41 1.28L341.41 1.28Q338.37 1.28 336.58 0.19L336.58 0.19L336.58 0.19Q334.78-0.90 334.27-2.69ZM374.40-17.98L374.40-17.98L374.40-17.98Q376.70-22.08 376.70-26.24L376.70-26.24L376.70-26.24Q376.70-28.99 374.72-28.99L374.72-28.99L374.72-28.99Q373.18-28.99 371.58-26.37L371.58-26.37L371.58-26.37Q369.92-23.74 369.41-20.35L369.41-20.35L366.08 0L352.83 1.28L359.36-32.64L369.92-33.92L368.77-27.46L368.77-27.46Q371.90-33.92 378.94-33.92L378.94-33.92L378.94-33.92Q382.66-33.92 384.67-32L384.67-32L384.67-32Q386.69-30.08 386.69-26.14L386.69-26.14L386.69-26.14Q386.69-22.21 384.10-19.71L384.10-19.71L384.10-19.71Q381.50-17.22 377.09-17.22L377.09-17.22L377.09-17.22Q375.17-17.22 374.40-17.98ZM388.74-6.40L388.74-6.40L388.74-6.40Q388.74-8.13 389.63-12.48L389.63-12.48L393.02-29.76L389.25-29.76L389.50-31.68L389.50-31.68Q397.18-33.98 404.61-39.62L404.61-39.62L407.68-39.62L406.14-32.64L411.14-32.64L410.56-29.76L405.63-29.76L402.37-12.48L402.37-12.48Q401.54-8.51 401.54-7.17L401.54-7.17L401.54-7.17Q401.54-4.10 404.22-3.46L404.22-3.46L404.22-3.46Q403.58-1.28 401.28 0L401.28 0L401.28 0Q398.98 1.28 395.71 1.28L395.71 1.28L395.71 1.28Q392.45 1.28 390.59-0.77L390.59-0.77L390.59-0.77Q388.74-2.82 388.74-6.40ZM413.34-1.92L413.34-1.92L413.34-1.92Q411.84-3.58 411.17-6.21L411.17-6.21L411.17-6.21Q410.50-8.83 410.50-13.12L410.50-13.12L410.50-13.12Q410.50-17.41 411.97-21.31L411.97-21.31L411.97-21.31Q413.44-25.22 416.13-28.03L416.13-28.03L416.13-28.03Q421.63-33.92 430.72-33.92L430.72-33.92L430.72-33.92Q433.98-33.92 436.35-32.83L436.35-32.83L447.30-33.92L442.56-8.96L442.56-8.96Q442.37-8.19 442.37-6.78L442.37-6.78L442.37-6.78Q442.37-5.38 443.23-4.48L443.23-4.48L443.23-4.48Q444.10-3.58 445.38-3.46L445.38-3.46L445.38-3.46Q444.74-1.28 442.40 0L442.40 0L442.40 0Q440.06 1.28 437.44 1.28L437.44 1.28L437.44 1.28Q434.82 1.28 433.06 0.29L433.06 0.29L433.06 0.29Q431.30-0.70 430.78-2.37L430.78-2.37L430.78-2.37Q429.76-0.77 427.58 0.26L427.58 0.26L427.58 0.26Q425.41 1.28 422.50 1.28L422.50 1.28L422.50 1.28Q419.58 1.28 417.22 0.51L417.22 0.51L417.22 0.51Q414.85-0.26 413.34-1.92ZM426.85-27.90L426.85-27.90L426.85-27.90Q426.11-26.75 425.47-24.80L425.47-24.80L425.47-24.80Q424.83-22.85 423.78-17.63L423.78-17.63L423.78-17.63Q422.72-12.42 422.72-8.70L422.72-8.70L422.72-8.70Q422.72-4.99 423.30-3.90L423.30-3.90L423.30-3.90Q423.87-2.82 424.90-2.82L424.90-2.82L424.90-2.82Q426.94-2.82 428.45-4.77L428.45-4.77L428.45-4.77Q429.95-6.72 430.53-10.18L430.53-10.18L433.92-28.93L433.92-28.93Q432.58-30.08 431.01-30.08L431.01-30.08L431.01-30.08Q429.44-30.08 428.51-29.57L428.51-29.57L428.51-29.57Q427.58-29.06 426.85-27.90ZM466.11-3.52L466.11-3.52L466.11-3.52Q464.13 1.28 457.79 1.28L457.79 1.28L457.79 1.28Q454.53 1.28 452.48-0.96L452.48-0.96L452.48-0.96Q450.75-2.94 450.75-4.93L450.75-4.93L450.75-4.93Q450.75-10.11 453.12-20.22L453.12-20.22L455.49-32.64L468.48-33.92L464.58-13.70L464.58-13.70Q463.49-8.96 463.49-7.30L463.49-7.30L463.49-7.30Q463.49-3.65 466.11-3.52ZM456.64-41.54L456.64-41.54L456.64-41.54Q456.64-44.03 458.72-45.38L458.72-45.38L458.72-45.38Q460.80-46.72 463.81-46.72L463.81-46.72L463.81-46.72Q466.82-46.72 468.64-45.38L468.64-45.38L468.64-45.38Q470.46-44.03 470.46-41.54L470.46-41.54L470.46-41.54Q470.46-39.04 468.45-37.76L468.45-37.76L468.45-37.76Q466.43-36.48 463.42-36.48L463.42-36.48L463.42-36.48Q460.42-36.48 458.53-37.76L458.53-37.76L458.53-37.76Q456.64-39.04 456.64-41.54ZM498.62 1.28L498.62 1.28L498.62 1.28Q490.88 1.28 490.88-4.74L490.88-4.74L490.88-4.74Q490.94-6.40 491.46-9.22L491.46-9.22L492.61-15.10L492.61-15.10Q494.34-23.42 494.34-25.28L494.34-25.28L494.34-25.28Q494.34-28.99 492.16-28.99L492.16-28.99L492.16-28.99Q488.51-28.99 486.59-19.46L486.59-19.46L482.82 0L469.95 1.28L476.61-32.70L487.10-33.92L486.08-27.65L486.08-27.65Q489.09-33.92 498.30-33.92L498.30-33.92L498.30-33.92Q502.78-33.92 504.67-32.03L504.67-32.03L504.67-32.03Q506.56-30.14 506.56-25.92L506.56-25.92L506.56-25.92Q506.56-21.95 504.51-12.67L504.51-12.67L504.51-12.67Q503.55-8.51 503.55-6.94L503.55-6.94L503.55-6.94Q503.55-5.38 504.42-4.48L504.42-4.48L504.42-4.48Q505.28-3.58 506.56-3.46L506.56-3.46L506.56-3.46Q505.92-1.28 503.71 0L503.71 0L503.71 0Q501.50 1.28 498.62 1.28Z" fill="#ccc"></path></g></g><style>text {
  font-size: 64px;
  font-family: Arial Black;
  dominant-baseline: central;
  text-anchor: middle;
}</style></svg>